<svg width="28" height="28" viewBox="0 0 28 28" fill="none" xmlns="http://www.w3.org/2000/svg">
<g clip-path="url(#clip0_2_26)">
<path d="M15.1667 8.16667H12.8333V12.8333H8.16667V15.1667H12.8333V19.8333H15.1667V15.1667H19.8333V12.8333H15.1667V8.16667ZM14 2.33334C7.56 2.33334 2.33333 7.56 2.33333 14C2.33333 20.44 7.56 25.6667 14 25.6667C20.44 25.6667 25.6667 20.44 25.6667 14C25.6667 7.56 20.44 2.33334 14 2.33334ZM14 23.3333C8.855 23.3333 4.66667 19.145 4.66667 14C4.66667 8.855 8.855 4.66667 14 4.66667C19.145 4.66667 23.3333 8.855 23.3333 14C23.3333 19.145 19.145 23.3333 14 23.3333Z" fill="#220E42"/>
</g>
<defs>
<clipPath id="clip0_2_26">
<rect width="28" height="28" fill="white"/>
</clipPath>
</defs>
</svg>
