<svg width="11" height="21" viewBox="0 0 11 21" fill="none" xmlns="http://www.w3.org/2000/svg">
<g clip-path="url(#clip0_7_274)">
<path d="M1.33163 10.4605C1.25795 10.3918 1.19885 10.309 1.15785 10.217C1.11686 10.125 1.09482 10.0257 1.09304 9.92502C1.09127 9.82432 1.10979 9.72429 1.14751 9.6309C1.18523 9.53751 1.24138 9.45268 1.3126 9.38146C1.38381 9.31024 1.46865 9.2541 1.56204 9.21637C1.65542 9.17865 1.75545 9.16013 1.85616 9.16191C1.95686 9.16368 2.05617 9.18572 2.14817 9.22672C2.24017 9.26771 2.32297 9.32681 2.39163 9.4005L5.39763 12.4055L8.40263 9.4005C8.4713 9.32681 8.5541 9.26771 8.6461 9.22672C8.7381 9.18572 8.83741 9.16368 8.93811 9.16191C9.03882 9.16013 9.13884 9.17865 9.23223 9.21637C9.32562 9.2541 9.41045 9.31024 9.48167 9.38146C9.55289 9.45268 9.60904 9.53751 9.64676 9.6309C9.68448 9.72429 9.703 9.82432 9.70123 9.92502C9.69945 10.0257 9.67741 10.125 9.63642 10.217C9.59542 10.309 9.53632 10.3918 9.46263 10.4605L5.91363 14.0105C5.83363 14.0904 5.73659 14.1513 5.62976 14.1884C5.52293 14.2255 5.40909 14.238 5.29675 14.2249C5.18441 14.2119 5.07648 14.1736 4.98104 14.1129C4.8856 14.0522 4.80513 13.9707 4.74563 13.8745L1.33163 10.4605Z" fill="#333333"/>
</g>
<defs>
<clipPath id="clip0_7_274">
<rect width="10" height="20" fill="white" transform="translate(0.390625 0.9375)"/>
</clipPath>
</defs>
</svg>
