<svg width="28" height="28" viewBox="0 0 28 28" fill="none" xmlns="http://www.w3.org/2000/svg">
<g clip-path="url(#clip0_2_29)">
<path d="M20.7767 18.1417L26.085 12.8333L22.5033 12.8333C21.9317 8.23666 18.0117 4.66666 13.2517 4.66666C8.49166 4.66666 4.57166 8.22499 3.99999 12.8333L6.35666 12.8333C6.91666 9.51999 9.78666 6.99999 13.2517 6.99999C16.7167 6.99999 19.5867 9.51999 20.1467 12.8333L15.585 12.8333L20.7767 18.1417ZM14.4183 23.2517C16.04 23.0533 17.6033 22.4117 18.9567 21.3617L17.3 19.705C16.425 20.335 15.4333 20.7317 14.4183 20.895L14.4183 23.2517ZM6.36833 15.1667L4.01166 15.1667C4.20999 16.7883 4.83999 18.3633 5.88999 19.7167L7.56999 18.0367C6.93999 17.1617 6.53166 16.1817 6.36833 15.1667ZM9.19166 19.705L7.54666 21.3617C8.89999 22.4117 10.4633 23.0533 12.085 23.2517L12.085 20.895C11.07 20.7317 10.0783 20.335 9.19166 19.705Z" fill="#220E42"/>
</g>
<defs>
<clipPath id="clip0_2_29">
<rect width="28" height="28" fill="white" transform="translate(28) rotate(90)"/>
</clipPath>
</defs>
</svg>
