<svg width="29" height="28" viewBox="0 0 29 28" fill="none" xmlns="http://www.w3.org/2000/svg">
<g clip-path="url(#clip0_6_61)">
<path d="M21.2767 18.1417L26.585 12.8333L23.0033 12.8333C22.4317 8.23666 18.5117 4.66666 13.7517 4.66666C8.99166 4.66666 5.07166 8.22499 4.49999 12.8333L6.85666 12.8333C7.41666 9.51999 10.2867 6.99999 13.7517 6.99999C17.2167 6.99999 20.0867 9.51999 20.6467 12.8333L16.085 12.8333L21.2767 18.1417ZM14.9183 23.2517C16.54 23.0533 18.1033 22.4117 19.4567 21.3617L17.8 19.705C16.925 20.335 15.9333 20.7317 14.9183 20.895L14.9183 23.2517ZM6.86833 15.1667L4.51166 15.1667C4.70999 16.7883 5.33999 18.3633 6.38999 19.7167L8.06999 18.0367C7.43999 17.1617 7.03166 16.1817 6.86833 15.1667ZM9.69166 19.705L8.04666 21.3617C9.39999 22.4117 10.9633 23.0533 12.585 23.2517L12.585 20.895C11.57 20.7317 10.5783 20.335 9.69166 19.705Z" fill="white"/>
</g>
<defs>
<clipPath id="clip0_6_61">
<rect width="28" height="28" fill="white" transform="translate(28.5) rotate(90)"/>
</clipPath>
</defs>
</svg>
