<svg width="28" height="28" viewBox="0 0 28 28" fill="none" xmlns="http://www.w3.org/2000/svg">
<g clip-path="url(#clip0_2_46)">
<path d="M7 17.5C8.28333 17.5 9.33333 18.55 9.33333 19.8333C9.33333 21.1167 8.28333 22.1667 7 22.1667C5.71666 22.1667 4.66666 21.1167 4.66666 19.8333C4.66666 18.55 5.71666 17.5 7 17.5ZM7 15.1667C4.43333 15.1667 2.33333 17.2667 2.33333 19.8333C2.33333 22.4 4.43333 24.5 7 24.5C9.56666 24.5 11.6667 22.4 11.6667 19.8333C11.6667 17.2667 9.56666 15.1667 7 15.1667ZM14 5.83333C15.2833 5.83333 16.3333 6.88333 16.3333 8.16667C16.3333 9.45 15.2833 10.5 14 10.5C12.7167 10.5 11.6667 9.45 11.6667 8.16667C11.6667 6.88333 12.7167 5.83333 14 5.83333ZM14 3.5C11.4333 3.5 9.33333 5.6 9.33333 8.16667C9.33333 10.7333 11.4333 12.8333 14 12.8333C16.5667 12.8333 18.6667 10.7333 18.6667 8.16667C18.6667 5.6 16.5667 3.5 14 3.5ZM21 17.5C22.2833 17.5 23.3333 18.55 23.3333 19.8333C23.3333 21.1167 22.2833 22.1667 21 22.1667C19.7167 22.1667 18.6667 21.1167 18.6667 19.8333C18.6667 18.55 19.7167 17.5 21 17.5ZM21 15.1667C18.4333 15.1667 16.3333 17.2667 16.3333 19.8333C16.3333 22.4 18.4333 24.5 21 24.5C23.5667 24.5 25.6667 22.4 25.6667 19.8333C25.6667 17.2667 23.5667 15.1667 21 15.1667Z" fill="#220E42"/>
</g>
<defs>
<clipPath id="clip0_2_46">
<rect width="28" height="28" fill="white"/>
</clipPath>
</defs>
</svg>
